
<svg xmlns="http://www.w3.org/2000/svg" width="800" height="200">
<style>
rect {
    fill: black;
}
@media (prefers-color-scheme: dark) {
    rect {
        fill: white;
    }
}
</style>
<rect width="40" height="200" x="0" y="0" />
<rect width="40" height="80" x="40" y="120" />
<rect width="40" height="120" x="80" y="80" />
<rect width="40" height="170" x="120" y="30" />
<rect width="40" height="60" x="160" y="140" />
<rect width="40" height="140" x="200" y="60" />
<rect width="40" height="10" x="240" y="190" />
<rect width="40" height="50" x="280" y="150" />
<rect width="40" height="90" x="320" y="110" />
<rect width="40" height="30" x="360" y="170" />
<rect width="40" height="180" x="400" y="20" />
<rect width="40" height="110" x="440" y="90" />
<rect width="40" height="150" x="480" y="50" />
<rect width="40" height="70" x="520" y="130" />
<rect width="40" height="160" x="560" y="40" />
<rect width="40" height="130" x="600" y="70" />
<rect width="40" height="20" x="640" y="180" />
<rect width="40" height="100" x="680" y="100" />
<rect width="40" height="40" x="720" y="160" />
<rect width="40" height="190" x="760" y="10" />
</svg>
