
<svg xmlns="http://www.w3.org/2000/svg" width="800" height="200">
    <rect width="40" height="200" x="0" y="0" fill="white" />
<rect width="40" height="50" x="40" y="150" fill="white" />
<rect width="40" height="150" x="80" y="50" fill="white" />
<rect width="40" height="10" x="120" y="190" fill="white" />
<rect width="40" height="110" x="160" y="90" fill="white" />
<rect width="40" height="100" x="200" y="100" fill="white" />
<rect width="40" height="180" x="240" y="20" fill="white" />
<rect width="40" height="20" x="280" y="180" fill="white" />
<rect width="40" height="140" x="320" y="60" fill="white" />
<rect width="40" height="70" x="360" y="130" fill="white" />
<rect width="40" height="30" x="400" y="170" fill="white" />
<rect width="40" height="190" x="440" y="10" fill="white" />
<rect width="40" height="90" x="480" y="110" fill="white" />
<rect width="40" height="160" x="520" y="40" fill="white" />
<rect width="40" height="170" x="560" y="30" fill="white" />
<rect width="40" height="120" x="600" y="80" fill="white" />
<rect width="40" height="40" x="640" y="160" fill="white" />
<rect width="40" height="60" x="680" y="140" fill="white" />
<rect width="40" height="130" x="720" y="70" fill="white" />
<rect width="40" height="80" x="760" y="120" fill="white" />
</svg>
